<?xml version="1.0" standalone="no"?>
<!DOCTYPE svg PUBLIC "-//W3C//DTD SVG 20010904//EN"
 "http://www.w3.org/TR/2001/REC-SVG-20010904/DTD/svg10.dtd">
<svg version="1.0" xmlns="http://www.w3.org/2000/svg"
 width="600.000000pt" height="600.000000pt" viewBox="0 0 600.000000 600.000000"
 preserveAspectRatio="xMidYMid meet">

<g transform="translate(0.000000,600.000000) scale(0.100000,-0.100000)"
fill="#000000" stroke="none">
<path d="M110 5993 c0 -3 30 -101 66 -216 48 -151 64 -214 57 -226 -19 -30
-59 -51 -143 -74 -81 -23 -85 -26 -88 -55 l-3 -29 98 24 c154 37 224 22 364
-83 103 -77 139 -133 139 -218 0 -69 -84 -389 -116 -444 -54 -92 -105 -125
-402 -263 -76 -36 -82 -41 -82 -69 0 -16 2 -30 5 -30 5 0 78 34 279 129 214
102 214 101 475 -213 73 -87 143 -176 157 -197 45 -72 44 -78 -60 -269 -144
-265 -158 -274 -465 -301 -236 -21 -344 -23 -372 -9 -18 10 -19 7 -19 -45 0
-59 1 -61 33 -44 11 7 140 22 286 34 396 32 391 34 569 -210 193 -265 206
-308 152 -491 -65 -220 -115 -284 -307 -399 -123 -73 -212 -105 -292 -105 -76
0 -348 52 -393 75 l-48 24 0 -54 0 -55 58 0 c31 0 121 -11 200 -25 161 -27
205 -47 269 -118 48 -55 143 -277 143 -335 0 -51 -26 -151 -89 -342 -62 -191
-103 -255 -233 -371 -120 -106 -158 -124 -265 -124 l-83 0 0 -27 c0 -23 6 -29
40 -38 78 -21 88 -73 60 -309 -22 -181 -32 -217 -74 -245 -22 -14 -26 -24 -26
-63 0 -40 5 -52 40 -89 22 -24 46 -55 52 -69 9 -20 19 -25 45 -25 30 0 33 3
28 20 -11 33 15 101 53 140 29 29 100 67 310 165 266 125 276 128 340 127 90
0 115 -11 286 -122 169 -110 169 -109 159 -247 l-6 -85 29 4 c28 3 29 6 36 66
8 72 45 147 97 197 20 19 140 101 266 183 329 212 299 196 371 195 56 0 78 -8
201 -66 312 -148 592 -287 598 -296 6 -10 -7 -151 -22 -243 -5 -37 -5 -38 25
-38 29 0 30 2 37 53 17 139 41 213 81 248 11 9 132 76 269 150 l250 134 95 0
95 0 165 -89 c91 -49 195 -106 231 -127 l67 -39 41 -116 c23 -64 48 -138 57
-165 l16 -49 57 0 58 0 -41 43 c-74 78 -122 269 -97 387 35 169 124 305 271
417 178 136 222 163 277 169 73 9 106 -6 261 -116 180 -128 243 -197 324 -354
56 -109 62 -127 62 -181 0 -74 -23 -122 -91 -186 -121 -116 -192 -146 -388
-164 l-140 -12 230 -2 230 -1 28 45 c31 48 179 192 221 214 22 12 41 9 193
-38 92 -29 183 -61 201 -71 l32 -19 0 49 0 50 -34 0 c-19 0 -106 22 -193 50
-127 40 -162 55 -181 77 -43 54 -152 282 -152 319 0 48 36 110 78 134 112 67
234 76 386 31 l97 -29 -3 31 c-3 33 -5 34 -185 87 -66 20 -76 26 -110 72 -20
28 -81 135 -136 237 l-98 186 26 200 c38 283 65 334 234 439 115 71 156 91
219 106 l52 12 0 54 c0 49 -4 58 -38 93 -29 30 -65 98 -141 266 l-103 227 12
62 c18 95 156 371 208 419 23 20 47 37 52 37 6 0 10 26 10 58 0 47 -4 63 -21
78 -12 10 -28 32 -36 47 -13 27 -102 560 -103 618 0 39 54 105 110 137 44 24
50 31 50 60 l0 32 -40 -20 c-62 -32 -119 -36 -172 -12 -38 16 -59 39 -128 133
-142 195 -148 222 -125 527 11 146 21 222 31 236 32 47 93 73 264 116 l170 42
0 29 c0 16 -2 29 -5 29 -3 0 -77 -18 -165 -40 -88 -22 -179 -40 -203 -40 -123
0 -228 74 -294 208 -37 73 -38 81 -41 195 -3 89 0 131 12 167 9 27 16 52 16
56 0 3 -154 3 -342 -1 -426 -8 -482 -8 -587 0 l-84 7 7 -35 c18 -96 -15 -499
-51 -612 -28 -90 -78 -158 -190 -260 -127 -115 -166 -137 -253 -142 -58 -4
-80 1 -198 41 -142 49 -210 80 -282 129 -77 52 -358 286 -387 321 -37 47 -62
113 -62 166 -1 39 28 273 44 363 4 24 2 27 -25 27 -36 0 -32 16 -65 -250 -14
-113 -30 -214 -34 -225 -12 -30 -526 -293 -597 -306 -92 -17 -145 0 -342 107
-97 53 -233 127 -302 165 -139 75 -169 101 -201 173 -20 46 -21 59 -14 194 l7
143 -29 -3 -28 -3 -10 -136 c-12 -154 -35 -216 -102 -280 -39 -37 -361 -237
-426 -264 -49 -20 -123 -19 -172 4 -63 29 -218 154 -257 208 -34 45 -49 89
-159 441 -9 26 -16 32 -40 32 -16 0 -29 -3 -29 -7z m5056 -53 c47 -29 68 -91
62 -178 -6 -77 -23 -117 -74 -166 -31 -30 -75 -48 -367 -145 -183 -61 -346
-111 -362 -111 -40 0 -72 23 -80 58 -3 15 4 109 15 207 18 157 25 186 48 224
46 76 80 87 347 109 317 27 370 27 411 2z m-3454 -593 c312 -171 359 -204 375
-265 5 -20 -21 -109 -107 -364 -124 -369 -143 -406 -231 -461 -60 -37 -599
-207 -657 -207 -24 0 -66 10 -94 22 -46 19 -72 46 -249 260 -162 194 -199 244
-199 268 0 17 30 149 66 293 l66 262 48 46 c42 40 425 281 491 309 13 5 60 8
104 7 l80 -3 307 -167z m3585 127 c86 -42 160 -143 183 -252 12 -53 -10 -386
-29 -434 -14 -38 -76 -104 -109 -116 -15 -6 -126 -34 -247 -61 -121 -28 -378
-86 -572 -131 -193 -44 -366 -80 -383 -80 -42 0 -102 34 -123 70 -9 15 -31 86
-48 156 -50 211 -33 264 138 420 190 175 213 187 679 344 400 135 404 136 511
84z m-2389 -92 c49 -25 326 -252 351 -288 30 -42 44 -100 37 -144 -10 -63
-133 -321 -173 -362 -67 -68 -104 -78 -335 -80 l-203 -3 -61 28 c-66 30 -106
68 -249 232 -95 108 -128 167 -129 231 -1 48 34 100 99 146 63 45 443 240 495
254 52 15 121 9 168 -14z m654 -428 c173 -56 191 -65 246 -118 59 -56 70 -80
109 -240 40 -168 43 -229 11 -250 -13 -8 -99 -38 -193 -66 -149 -46 -178 -52
-232 -47 -78 6 -134 37 -203 114 -68 76 -82 104 -88 179 -4 60 -3 66 83 255
87 195 100 219 116 219 5 0 73 -21 151 -46z m-1389 -166 c43 -33 220 -249 241
-293 46 -99 49 -128 31 -394 -8 -135 -20 -263 -26 -283 -11 -43 -45 -59 -77
-36 -10 7 -99 96 -197 198 -259 269 -259 271 -160 568 37 111 76 213 87 227
22 28 72 34 101 13z m3409 -308 c104 -142 148 -219 180 -310 19 -55 103 -567
114 -690 3 -36 1 -70 -3 -76 -4 -7 -100 -67 -213 -135 -203 -123 -205 -124
-267 -124 -46 0 -69 5 -90 21 -48 35 -450 524 -472 574 -41 94 -38 126 24 361
86 326 81 313 132 369 25 28 58 57 73 65 15 8 87 28 161 44 74 17 143 32 154
35 11 2 40 3 64 3 l45 -2 98 -135z m-758 -11 c13 -7 30 -25 37 -41 11 -26 5
-56 -49 -261 -58 -219 -63 -234 -97 -264 -48 -45 -92 -44 -220 6 l-100 39
-117 129 c-136 148 -155 180 -136 220 7 16 24 33 38 40 24 11 569 140 602 142
9 0 28 -4 42 -10z m-1711 -51 c67 -31 177 -132 214 -196 17 -29 27 -64 30
-106 5 -58 2 -71 -37 -160 -62 -141 -121 -197 -272 -261 -180 -76 -217 -87
-308 -92 -69 -3 -101 0 -170 20 l-85 23 -3 51 c-2 28 6 182 17 342 22 312 29
348 84 384 29 19 111 24 327 23 136 -1 149 -3 203 -28z m920 -182 c50 -25 222
-216 253 -281 13 -27 24 -65 24 -83 0 -19 -18 -92 -41 -163 -63 -199 -101
-232 -328 -297 -153 -43 -234 -47 -298 -14 -26 14 -87 71 -157 149 -130 142
-153 186 -143 277 5 51 86 255 114 288 18 21 82 46 258 102 119 38 151 45 210
43 44 -2 84 -10 108 -21z m-2158 -86 c49 -21 431 -412 457 -468 22 -47 23
-124 2 -164 -24 -47 -383 -608 -415 -649 -15 -19 -43 -43 -61 -53 -33 -18 -36
-17 -316 33 -392 70 -390 68 -597 356 -65 90 -120 177 -126 200 -6 22 -9 67
-7 100 4 52 15 79 83 205 82 153 121 203 195 250 39 25 512 182 627 209 47 11
105 4 158 -19z m2708 -339 c53 -22 118 -57 143 -77 37 -31 551 -637 578 -681
4 -8 -35 -82 -99 -188 -150 -246 -188 -275 -418 -320 -151 -29 -197 -26 -282
15 -60 30 -237 206 -263 262 -41 89 -43 120 -21 339 24 243 37 312 92 488 67
215 96 233 270 162z m-1303 -151 c44 -23 315 -314 315 -339 0 -16 -96 -86
-243 -178 -69 -43 -75 -45 -99 -32 -38 20 -362 329 -379 361 -18 34 -5 70 32
95 50 33 258 112 297 113 21 0 55 -9 77 -20z m-645 -121 c93 -35 185 -105 360
-277 143 -139 171 -172 198 -230 32 -66 32 -69 32 -217 0 -132 -3 -156 -21
-196 -30 -63 -80 -116 -183 -193 -174 -129 -226 -137 -506 -76 -104 22 -247
49 -316 59 -140 21 -171 33 -217 85 -35 40 -47 80 -57 182 -7 70 -6 72 33 135
122 199 418 658 441 683 34 37 96 66 143 66 21 0 62 -9 93 -21z m1510 -185
c31 -33 31 -52 5 -313 -21 -221 0 -174 -178 -389 -98 -118 -153 -166 -202
-177 -27 -6 -282 55 -361 86 -36 14 -85 67 -103 111 -19 44 -22 221 -6 280 29
101 137 195 345 298 112 55 351 127 428 129 40 1 52 -4 72 -25z m1653 -124 c2
-15 -18 -68 -47 -127 -57 -117 -86 -143 -159 -143 -37 0 -50 6 -78 34 -37 37
-42 60 -18 94 19 28 263 174 284 170 8 -2 16 -14 18 -28z m-306 -301 c50 -25
140 -108 178 -164 15 -22 65 -121 110 -220 124 -270 118 -309 -66 -420 -89
-54 -104 -60 -154 -60 -42 0 -63 6 -88 24 -18 13 -96 107 -172 209 -201 268
-202 286 -48 531 76 120 144 149 240 100z m-3959 -138 c224 -41 295 -64 323
-106 10 -15 17 -59 20 -127 5 -100 4 -105 -23 -150 -40 -67 -298 -335 -346
-359 -22 -12 -58 -21 -81 -21 -69 -1 -210 23 -234 38 -35 23 -83 96 -116 177
-26 64 -30 84 -30 177 -1 96 2 114 37 216 37 110 65 151 122 182 34 19 102 13
328 -27z m2688 -70 c73 -47 205 -190 218 -236 14 -50 13 -61 -3 -105 -18 -50
-203 -330 -218 -330 -16 0 -265 255 -283 290 -45 89 -29 139 95 289 112 136
119 139 191 92z m-673 -262 c149 -41 217 -70 292 -124 47 -34 244 -248 286
-308 45 -67 45 -67 -84 -262 -161 -246 -201 -278 -412 -333 -144 -38 -216 -47
-253 -33 -46 18 -323 287 -365 356 -52 83 -60 105 -88 229 -31 139 -30 187 1
251 31 65 35 70 136 147 104 80 138 98 209 114 70 15 103 11 278 -37z m1473
36 c23 -9 57 -26 74 -39 42 -32 339 -431 354 -475 17 -51 13 -174 -9 -326 -22
-150 -31 -173 -87 -227 -33 -32 -326 -204 -391 -229 -48 -19 -144 -28 -193
-19 -27 5 -203 66 -392 135 -379 138 -387 143 -387 220 0 40 20 73 245 417
254 386 301 445 390 488 51 25 247 68 311 69 23 1 61 -6 85 -14z m-2833 -157
c63 -32 83 -65 97 -153 14 -85 17 -76 -69 -184 -65 -81 -117 -112 -199 -118
-54 -5 -83 1 -202 37 -156 47 -188 62 -205 98 -10 23 -3 32 122 159 134 135
159 155 233 180 58 19 168 10 223 -19z m-1177 -88 c63 -157 50 -224 -65 -326
-129 -114 -208 -155 -233 -121 -12 15 -83 182 -94 221 -10 35 5 99 32 137 21
30 286 191 308 187 7 -2 31 -46 52 -98z m1527 35 c64 -14 120 -29 125 -34 4
-4 2 -13 -6 -19 -25 -21 -186 -72 -227 -72 -94 0 -125 112 -40 143 23 8 24 8
148 -18z m250 -135 c41 -25 54 -56 82 -195 33 -163 25 -239 -46 -452 -30 -93
-66 -185 -79 -205 -36 -54 -104 -97 -183 -113 -141 -30 -223 -13 -267 54 -13
20 -51 131 -85 246 -54 183 -61 217 -55 265 9 81 44 146 126 233 l74 77 160
54 c176 60 223 66 273 36z m-1445 -175 c136 -21 198 -36 416 -101 197 -58 230
-74 283 -132 44 -50 58 -84 125 -312 52 -175 57 -204 57 -285 0 -82 -4 -98
-38 -175 -45 -101 -113 -215 -153 -252 -15 -14 -157 -109 -315 -211 -291 -187
-355 -219 -409 -202 -35 11 -360 229 -391 262 -29 31 -300 456 -330 518 l-20
41 72 224 c99 308 121 344 305 495 109 90 209 145 263 145 17 0 78 -7 135 -15z
m1811 -462 c190 -180 215 -220 327 -516 67 -179 69 -204 16 -200 -19 1 -451
244 -593 333 -31 19 -72 86 -79 130 -5 29 4 68 40 178 54 167 71 192 126 192
37 0 48 -8 163 -117z m730 -147 c38 -22 70 -64 209 -269 90 -133 172 -257 182
-276 29 -57 31 -140 5 -222 -13 -39 -34 -84 -47 -100 -28 -33 -84 -54 -120
-44 -50 12 -348 180 -392 219 -70 65 -97 114 -177 323 -80 206 -89 253 -60
298 24 37 51 51 151 79 113 32 185 29 249 -8z m498 -116 c165 -60 309 -117
319 -126 24 -21 24 -66 2 -92 -33 -38 -223 -171 -258 -181 -43 -12 -96 1 -129
32 -42 39 -296 427 -296 453 0 20 5 24 30 24 17 0 166 -49 332 -110z m1070 47
c46 -36 193 -319 179 -345 -15 -28 -213 -132 -253 -132 -49 1 -107 30 -234
121 -121 86 -154 119 -154 154 0 49 20 63 290 207 67 36 122 34 172 -5z
m-2644 -191 c58 -21 630 -352 665 -384 16 -16 27 -36 27 -52 0 -44 -6 -48
-349 -230 -153 -81 -179 -92 -212 -87 -41 5 -160 59 -491 222 -187 92 -220
112 -239 142 -34 55 -29 107 21 203 43 81 88 129 157 164 87 44 328 57 421 22z
m-2248 -128 c36 -24 269 -379 270 -409 0 -24 -61 -62 -201 -123 -70 -30 -190
-86 -268 -125 -77 -39 -154 -71 -170 -71 -56 0 -58 12 -33 229 20 182 24 201
57 268 29 58 53 88 121 150 118 109 160 124 224 81z"/>
<path d="M4965 5854 c-414 -33 -457 -38 -469 -50 -13 -13 -32 -133 -43 -276
-5 -66 -4 -78 9 -78 32 0 643 213 656 228 13 17 17 178 5 185 -5 2 -75 -2
-158 -9z m111 -70 c14 -20 14 -26 0 -53 -9 -17 -26 -36 -38 -42 -22 -12 -487
-169 -500 -169 -3 0 -14 7 -23 17 -14 13 -16 28 -10 87 9 86 28 131 63 145 30
13 434 49 470 43 13 -3 30 -15 38 -28z"/>
<path d="M1044 5293 c-243 -148 -260 -160 -271 -196 -17 -51 -123 -468 -123
-483 0 -9 343 -428 391 -478 5 -6 143 33 355 100 305 96 347 112 358 134 7 14
64 177 127 363 l114 339 -24 16 c-29 20 -654 362 -662 362 -3 0 -122 -71 -265
-157z m569 -54 c144 -78 272 -153 285 -166 14 -15 22 -37 22 -58 0 -18 -43
-159 -95 -312 -85 -249 -98 -281 -129 -308 -27 -24 -91 -48 -314 -118 l-280
-89 -40 19 c-30 13 -76 61 -182 188 -145 174 -170 212 -170 264 0 36 87 376
105 411 22 42 52 64 260 189 163 99 206 121 238 121 31 0 92 -29 300 -141z"/>
<path d="M1118 5153 c-106 -64 -196 -120 -199 -125 -4 -6 -28 -93 -54 -195
-41 -162 -45 -186 -33 -201 8 -9 69 -83 136 -164 67 -80 126 -149 131 -152 10
-7 509 148 523 162 10 10 178 497 178 516 0 9 -324 192 -482 273 -3 2 -93 -49
-200 -114z m417 -34 c94 -50 180 -102 193 -116 12 -13 22 -37 22 -53 0 -16
-29 -113 -65 -217 -53 -151 -72 -194 -98 -220 -26 -26 -67 -43 -226 -93 -204
-66 -242 -70 -284 -33 -52 47 -197 237 -206 271 -9 31 -5 59 23 170 22 84 43
147 60 171 18 26 67 62 169 123 78 47 151 88 162 91 41 11 84 -6 250 -94z"/>
<path d="M1184 5010 l-131 -80 -31 -122 -30 -121 81 -99 c45 -54 86 -97 92
-95 5 2 80 25 165 52 85 26 160 52 167 57 18 14 117 318 107 328 -8 7 -284
161 -288 160 0 -1 -60 -36 -132 -80z m272 -11 c91 -49 124 -82 124 -122 0 -7
-18 -62 -40 -123 -49 -137 -62 -149 -218 -197 -146 -45 -168 -42 -236 37 -73
85 -80 120 -46 229 25 79 46 108 117 153 146 93 166 95 299 23z"/>
<path d="M1249 4871 c-61 -37 -65 -41 -79 -95 l-14 -56 27 -28 27 -27 88 30
87 30 23 64 c12 35 21 65 20 66 -17 13 -97 55 -105 55 -5 0 -38 -17 -74 -39z
m134 -9 c57 -50 -21 -150 -131 -168 -53 -8 -72 6 -72 56 0 47 49 105 105 125
43 15 70 12 98 -13z"/>
<path d="M5045 5372 c-77 -27 -264 -90 -415 -140 l-275 -92 -160 -146 c-88
-80 -161 -155 -163 -166 -4 -24 66 -326 78 -333 7 -4 385 79 1080 239 85 20
158 40 162 44 9 9 38 341 38 430 0 54 0 55 -77 133 -56 58 -83 79 -102 79 -14
0 -89 -22 -166 -48z m207 -37 c38 -26 74 -76 88 -123 13 -47 -14 -347 -34
-377 -23 -35 -33 -38 -261 -90 -110 -24 -348 -78 -529 -120 -380 -87 -369 -87
-399 4 -27 81 -33 171 -14 207 15 30 223 223 276 256 48 31 751 267 796 267
27 1 52 -7 77 -24z"/>
<path d="M4802 5125 l-364 -124 -61 -55 c-34 -30 -89 -79 -121 -109 l-59 -53
13 -52 c6 -29 17 -52 23 -52 11 0 629 140 883 200 l92 21 6 42 c3 23 8 90 12
148 l7 106 -29 26 c-16 15 -31 27 -34 26 -3 0 -168 -56 -368 -124z m389 63 c8
-15 9 -51 4 -117 -7 -108 -25 -143 -78 -160 -50 -16 -824 -191 -845 -191 -32
0 -43 20 -27 50 18 35 156 164 209 195 37 22 623 227 678 238 43 8 47 7 59
-15z"/>
<path d="M5030 5030 c0 -5 4 -10 9 -10 6 0 13 5 16 10 3 6 -1 10 -9 10 -9 0
-16 -4 -16 -10z"/>
<path d="M2531 5187 c-266 -138 -275 -143 -287 -180 l-13 -38 56 -67 c31 -37
104 -121 162 -186 l106 -119 240 7 c200 6 242 10 252 23 23 29 174 374 168
383 -6 9 -294 247 -356 293 -20 15 -40 27 -45 27 -5 -1 -132 -65 -283 -143z
m325 60 c11 -7 77 -59 147 -116 170 -139 169 -135 91 -306 -40 -85 -68 -135
-87 -149 -24 -18 -48 -21 -200 -28 -233 -11 -224 -15 -383 164 -121 137 -147
179 -126 200 5 5 113 63 238 129 235 122 272 134 320 106z"/>
<path d="M2618 5054 c-93 -46 -168 -88 -168 -92 0 -4 38 -52 85 -105 l86 -97
122 0 c67 0 140 3 161 7 38 6 40 9 81 97 40 84 42 92 27 109 -32 35 -200 167
-213 166 -8 0 -89 -38 -181 -85z m245 5 c102 -67 128 -126 89 -198 -30 -56
-71 -71 -187 -71 -115 0 -147 13 -209 88 -60 73 -54 86 85 158 124 64 156 67
222 23z"/>
<path d="M2748 4944 c-16 -8 -28 -17 -28 -19 0 -3 23 -5 52 -5 50 0 51 0 33
20 -21 24 -22 24 -57 4z"/>
<path d="M3438 4853 c-27 -47 -148 -322 -148 -338 0 -8 42 -58 93 -112 l94
-97 64 18 c35 10 120 36 187 58 l124 39 -7 37 c-6 39 -49 221 -66 284 l-9 36
-153 51 c-83 28 -154 51 -157 51 -3 0 -13 -12 -22 -27z m179 -68 c97 -35 125
-69 152 -182 26 -112 26 -116 -1 -147 -29 -31 -217 -91 -260 -82 -70 14 -148
103 -148 168 0 48 72 213 107 246 31 28 66 28 150 -3z"/>
<path d="M3505 4618 c-35 -73 -35 -89 0 -118 13 -11 25 -11 71 0 86 21 91 27
76 95 -6 32 -13 60 -16 62 -2 2 -25 11 -51 18 l-46 14 -34 -71z m110 -9 c17
-31 11 -55 -16 -69 -23 -13 -76 -13 -84 0 -10 16 14 78 37 94 26 18 45 11 63
-25z"/>
<path d="M2119 4633 c-50 -130 -117 -348 -111 -359 17 -31 295 -314 308 -314
19 0 22 19 37 254 l13 209 -104 118 c-57 66 -110 119 -118 119 -8 0 -19 -12
-25 -27z m124 -138 c74 -89 79 -113 66 -276 -6 -73 -13 -137 -15 -141 -14 -22
-47 1 -128 88 -108 116 -113 136 -71 265 50 154 68 161 148 64z"/>
<path d="M5355 4510 c-16 -4 -92 -22 -167 -40 -135 -31 -137 -32 -147 -63 -6
-18 -44 -158 -85 -312 l-75 -280 32 -40 c117 -147 461 -555 468 -555 10 0 358
208 382 229 14 11 17 24 13 51 -3 19 -28 183 -56 363 l-50 328 -118 162 c-125
172 -130 176 -197 157z m69 -71 c44 -35 185 -240 202 -294 8 -27 35 -176 59
-330 55 -356 62 -329 -122 -438 -136 -81 -174 -92 -211 -59 -16 14 -230 270
-356 424 -65 81 -65 92 10 369 79 296 75 291 221 324 126 30 163 30 197 4z"/>
<path d="M5270 4329 c-47 -11 -88 -23 -92 -27 -8 -9 -118 -421 -118 -443 0 -9
79 -111 176 -228 l176 -212 46 27 c26 15 71 42 100 61 49 31 52 35 47 66 -3
17 -21 138 -40 267 -20 129 -38 247 -41 262 -4 22 -159 251 -167 247 -1 0 -40
-10 -87 -20z m128 -86 c81 -91 98 -141 139 -407 l36 -239 -19 -36 c-11 -21
-37 -46 -62 -59 -72 -40 -85 -32 -233 146 -129 155 -159 200 -159 243 0 33 81
331 96 353 27 39 67 57 114 53 39 -4 51 -12 88 -54z"/>
<path d="M5297 4143 c-3 -5 -19 -62 -37 -128 -26 -98 -30 -123 -20 -139 32
-50 185 -225 188 -213 1 7 -11 100 -27 206 -26 166 -34 199 -57 233 -30 43
-40 52 -47 41z m55 -98 c23 -66 57 -301 46 -317 -9 -14 -54 32 -108 111 -37
54 -39 100 -9 196 25 81 45 84 71 10z"/>
<path d="M4505 4316 c-243 -57 -235 -55 -235 -69 0 -12 139 -178 171 -204 27
-22 200 -86 209 -77 11 11 100 343 100 372 0 31 -29 28 -245 -22z m175 -35 c7
-15 4 -43 -15 -113 -27 -103 -58 -144 -98 -132 -74 21 -197 129 -197 171 0 29
7 33 135 64 136 33 161 35 175 10z"/>
<path d="M2670 4341 c-56 -8 -53 5 -75 -340 -20 -305 -27 -279 84 -306 l68
-16 209 84 209 85 57 129 c31 70 57 136 57 146 1 10 -44 64 -101 123 l-101
104 -181 -2 c-100 0 -201 -4 -226 -7z m378 -46 c42 -18 126 -96 148 -137 8
-15 14 -43 14 -63 0 -53 -60 -176 -103 -210 -19 -16 -101 -55 -182 -87 -128
-51 -155 -59 -203 -56 -46 3 -58 7 -75 30 -20 27 -21 30 -6 253 18 270 16 266
132 276 144 12 236 10 275 -6z"/>
<path d="M2767 4162 c-3 -15 -9 -90 -13 -165 -6 -118 -5 -137 8 -137 13 0 275
104 284 112 5 5 54 117 54 124 0 2 -19 25 -41 49 l-42 45 -122 0 -122 0 -6
-28z m216 -7 c42 -8 67 -39 67 -81 0 -50 -45 -91 -141 -129 -110 -43 -129 -37
-128 45 0 66 14 130 33 148 9 9 37 19 63 22 49 6 58 5 106 -5z"/>
<path d="M3865 4155 c-44 -13 -136 -41 -205 -62 l-125 -39 -58 -134 c-41 -94
-56 -139 -50 -152 15 -33 275 -317 286 -313 7 2 91 25 187 50 96 25 185 50
197 55 17 7 32 42 73 166 35 107 49 163 43 175 -16 35 -237 279 -253 278 -8 0
-51 -11 -95 -24z m93 -46 c42 -14 179 -171 194 -222 10 -35 8 -49 -22 -140
-45 -139 -60 -152 -221 -195 -138 -36 -167 -38 -207 -18 -25 13 -118 110 -184
194 -36 45 -36 93 -2 175 44 106 59 117 254 178 129 41 144 43 188 28z"/>
<path d="M3777 3964 c-59 -18 -113 -36 -119 -40 -5 -4 -21 -31 -34 -61 l-25
-55 25 -32 c14 -17 49 -57 78 -89 l53 -58 115 31 c63 17 118 34 121 38 9 10
49 133 49 152 0 26 -112 150 -135 149 -11 0 -69 -16 -128 -35z m160 -30 c59
-37 78 -119 41 -174 -33 -49 -89 -74 -165 -75 -57 0 -65 3 -98 35 -104 99 -83
167 65 215 78 25 116 25 157 -1z"/>
<path d="M1620 4039 c-85 -28 -239 -77 -341 -110 l-186 -59 -107 -200 -108
-200 83 -118 c168 -239 248 -341 271 -347 114 -26 592 -104 597 -98 70 104
435 681 438 694 5 17 -42 70 -303 342 -106 110 -148 147 -166 146 -12 0 -93
-23 -178 -50z m382 -200 c97 -101 183 -197 189 -213 9 -21 10 -36 1 -58 -6
-17 -89 -152 -184 -300 -175 -275 -202 -308 -258 -308 -56 0 -464 80 -498 98
-28 14 -70 65 -167 198 -162 223 -161 212 -61 394 98 181 103 185 337 259 107
34 232 75 279 91 62 21 99 29 135 26 l50 -3 177 -184z"/>
<path d="M1670 3889 c-52 -17 -179 -58 -282 -90 l-187 -60 -66 -123 c-36 -68
-65 -128 -65 -134 0 -10 199 -294 223 -319 7 -6 104 -28 217 -48 113 -20 212
-38 221 -41 13 -4 55 55 175 243 87 136 159 257 161 268 3 15 -38 63 -149 177
l-153 158 -95 -31z m98 -30 c38 -13 239 -227 248 -264 9 -35 3 -46 -136 -264
-124 -194 -140 -211 -203 -211 -69 0 -308 49 -347 71 -58 33 -210 247 -210
296 0 48 74 187 116 219 31 24 435 161 480 163 12 1 35 -4 52 -10z"/>
<path d="M1690 3729 c-14 -4 -105 -33 -203 -64 l-177 -56 -31 -60 -30 -60 67
-92 c37 -51 72 -95 76 -98 5 -3 70 -16 144 -29 132 -23 135 -23 148 -4 8 10
56 84 106 162 l91 144 -72 76 c-86 91 -87 92 -119 81z m20 -29 c48 -13 119
-87 126 -131 5 -30 -4 -49 -68 -149 -96 -151 -111 -160 -238 -135 -48 9 -101
25 -118 35 -38 23 -97 96 -118 145 -35 86 10 126 219 194 179 58 154 53 197
41z"/>
<path d="M4447 3743 c-3 -5 -26 -73 -52 -153 -43 -136 -48 -160 -70 -385 -14
-132 -25 -261 -25 -286 l0 -47 141 -133 141 -133 198 39 c164 32 200 42 211
59 7 12 55 90 106 175 l93 153 -27 37 c-16 21 -135 165 -265 322 l-237 284
-98 38 c-104 40 -109 41 -116 30z m161 -101 c31 -19 114 -110 273 -302 272
-326 262 -299 173 -450 -61 -103 -95 -145 -134 -165 -34 -17 -222 -55 -277
-55 -24 0 -54 5 -66 11 -33 17 -179 159 -204 199 -29 44 -29 86 -3 340 15 146
28 222 52 305 48 164 78 183 186 117z"/>
<path d="M4522 3467 c-13 -44 -30 -159 -43 -296 l-22 -223 86 -86 86 -86 126
24 126 24 56 92 c30 51 53 100 51 108 -5 24 -418 516 -432 516 -7 0 -22 -32
-34 -73z m81 -19 c51 -47 327 -389 333 -413 8 -34 -2 -69 -33 -116 -34 -52
-74 -75 -155 -90 -91 -17 -131 -4 -191 60 -66 70 -69 89 -46 306 19 189 25
227 41 258 12 23 22 22 51 -5z"/>
<path d="M4636 3144 c-4 -33 -9 -77 -12 -99 -4 -35 -1 -44 25 -69 27 -26 34
-28 75 -22 46 7 76 27 76 50 0 6 -30 48 -66 91 -99 120 -91 116 -98 49z m98
-71 c25 -32 46 -63 46 -70 0 -28 -72 -43 -110 -23 -23 12 -35 66 -26 115 10
52 36 45 90 -22z"/>
<path d="M3111 3550 c-103 -43 -114 -50 -106 -71 7 -19 261 -259 274 -259 18
0 171 104 171 116 0 12 -179 218 -209 241 -23 17 -25 17 -130 -27z m182 -92
c72 -76 83 -102 62 -134 -19 -30 -57 -40 -94 -24 -16 6 -61 45 -101 85 -62 64
-70 77 -60 94 15 29 39 40 90 41 42 0 48 -4 103 -62z"/>
<path d="M2476 3438 c-13 -18 -121 -186 -240 -372 l-217 -339 7 -61 c3 -34 9
-77 13 -96 l7 -35 184 -31 c102 -17 274 -50 382 -73 l197 -43 160 122 161 121
0 182 0 182 -223 216 -223 217 -77 21 c-43 11 -84 21 -92 21 -8 0 -25 -15 -39
-32z m163 -50 c54 -27 382 -341 421 -403 23 -37 25 -49 25 -172 0 -152 -1
-155 -101 -236 -107 -87 -160 -119 -206 -124 -29 -3 -113 10 -258 40 -118 25
-251 51 -295 57 -97 15 -128 30 -145 69 -13 31 -6 99 13 136 39 75 394 619
414 635 33 26 75 25 132 -2z"/>
<path d="M2558 3273 c-31 -35 -377 -587 -373 -594 3 -4 35 -12 72 -18 38 -6
168 -32 290 -57 l223 -46 99 73 100 74 1 111 0 111 -185 181 c-101 100 -190
182 -198 182 -8 0 -21 -8 -29 -17z m226 -203 c70 -69 135 -139 142 -157 19
-43 18 -146 -1 -183 -21 -41 -108 -107 -158 -121 -23 -6 -55 -8 -72 -5 -63 11
-421 86 -432 91 -7 2 -13 14 -13 25 0 16 172 297 306 499 l27 42 36 -33 c20
-18 94 -89 165 -158z"/>
<path d="M2521 2928 c-56 -88 -79 -133 -71 -138 6 -4 72 -20 146 -35 l135 -28
42 30 c32 24 43 38 45 63 3 30 -6 42 -90 127 -51 52 -100 98 -108 103 -12 6
-33 -20 -99 -122z m201 3 c54 -55 78 -87 78 -103 0 -29 -34 -64 -72 -73 -26
-7 -173 17 -215 35 -35 14 -29 55 18 127 43 66 72 93 98 93 9 0 50 -36 93 -79z"/>
<path d="M3883 3235 c-89 -24 -172 -49 -183 -55 -11 -6 -85 -54 -165 -106
l-145 -95 0 -154 0 -153 48 -16 c79 -26 303 -86 322 -86 10 0 62 54 126 133
165 199 150 165 169 374 16 169 15 204 -3 202 -4 0 -80 -20 -169 -44z m122
-41 c17 -18 16 -66 -6 -213 -12 -82 -22 -99 -119 -218 -87 -106 -120 -133
-162 -133 -36 0 -217 49 -243 66 -33 22 -45 58 -45 135 0 105 18 133 140 213
135 88 169 105 280 137 113 33 133 34 155 13z"/>
<path d="M3820 3056 c-25 -7 -96 -46 -158 -87 l-113 -74 3 -55 3 -54 75 -22
c57 -16 78 -19 89 -10 21 17 146 168 159 193 16 30 16 123 0 122 -7 0 -33 -6
-58 -13z m37 -42 c10 -26 -28 -92 -91 -159 -51 -54 -67 -65 -94 -65 -38 0 -87
23 -95 44 -12 31 61 95 188 163 68 37 83 40 92 17z"/>
<path d="M5362 2818 c-16 -24 -55 -87 -87 -140 l-57 -98 17 -27 c28 -44 306
-413 311 -413 6 0 189 111 215 131 l23 17 -31 73 c-17 41 -66 150 -109 242
l-77 168 -76 45 c-41 24 -81 44 -88 44 -7 0 -25 -19 -41 -42z m114 -47 c18
-11 43 -35 58 -53 32 -43 176 -356 176 -384 0 -52 -96 -121 -151 -109 -43 10
-258 296 -266 352 -7 63 91 211 142 213 6 0 24 -9 41 -19z"/>
<path d="M5426 2619 c-9 -13 -16 -27 -16 -32 0 -13 111 -157 121 -157 15 0 11
15 -27 102 -46 106 -56 117 -78 87z"/>
<path d="M1216 2713 c-7 -16 -33 -89 -56 -163 l-43 -135 17 -47 c9 -26 33 -86
52 -132 l35 -84 115 -17 115 -18 41 39 c22 21 98 100 169 175 l128 136 -9 83
c-5 46 -13 87 -17 91 -8 8 -488 99 -519 99 -7 0 -20 -12 -28 -27z m294 -63
c173 -31 207 -45 224 -93 18 -49 -16 -103 -147 -239 -100 -102 -131 -128 -164
-137 -57 -16 -132 1 -166 37 -39 41 -77 142 -77 204 0 69 44 206 76 236 33 29
55 28 254 -8z"/>
<path d="M1325 2544 c-44 -109 -45 -121 -23 -176 29 -71 35 -78 72 -78 27 0
45 15 129 104 53 58 97 109 97 114 0 9 -115 33 -223 48 -37 5 -45 3 -52 -12z
m158 -35 c57 -15 50 -42 -33 -124 -80 -79 -95 -80 -117 -5 -15 51 -3 113 25
129 22 13 78 14 125 0z"/>
<path d="M4094 2553 c-90 -106 -99 -120 -88 -143 12 -26 183 -210 195 -210 13
0 159 224 159 243 0 19 -169 187 -187 187 -7 0 -42 -35 -79 -77z m152 -47 c53
-53 56 -83 15 -148 -34 -54 -63 -73 -88 -59 -29 15 -90 84 -98 108 -13 46 59
143 107 143 11 0 40 -20 64 -44z"/>
<path d="M3253 2401 c-21 -14 -89 -64 -151 -111 -91 -68 -112 -89 -112 -110 0
-14 14 -97 32 -184 37 -186 18 -157 242 -370 l155 -147 183 46 c214 55 185 32
343 272 91 138 105 164 96 182 -6 11 -75 88 -153 172 l-143 153 -119 32 c-65
19 -167 46 -226 62 l-109 29 -38 -26z m270 -82 c83 -22 170 -51 192 -65 50
-29 247 -244 257 -280 9 -35 0 -55 -82 -181 -116 -174 -118 -176 -295 -223
-160 -43 -160 -43 -331 117 -156 146 -172 173 -204 338 -29 149 -25 159 110
260 95 70 105 75 152 75 27 0 118 -18 201 -41z"/>
<path d="M3243 2199 c-37 -29 -72 -55 -77 -60 -5 -4 1 -57 14 -124 l23 -115
127 -120 c70 -66 135 -120 145 -120 9 0 64 12 122 28 l105 27 74 112 c41 61
74 116 74 121 0 5 -42 57 -94 113 l-94 104 -163 43 c-90 24 -169 43 -176 42
-6 0 -42 -23 -80 -51z m253 -20 c129 -36 151 -49 232 -133 56 -58 62 -69 62
-106 0 -32 -9 -55 -40 -100 -52 -77 -91 -106 -172 -127 -95 -25 -122 -14 -233
95 -108 104 -137 157 -139 249 -1 55 2 65 29 94 35 37 78 58 121 59 17 0 80
-14 140 -31z"/>
<path d="M3336 2072 c-3 -5 -3 -25 0 -44 5 -28 25 -54 88 -117 l82 -82 45 10
c46 10 99 59 99 91 0 9 -19 34 -42 56 -36 35 -58 45 -140 68 -105 28 -124 31
-132 18z m129 -32 c102 -26 155 -65 155 -116 0 -26 -7 -36 -35 -54 -48 -30
-85 -16 -157 58 -60 61 -78 89 -78 120 0 22 -4 22 115 -8z"/>
<path d="M4790 2386 c-85 -17 -161 -35 -169 -40 -7 -5 -106 -149 -219 -320
-280 -425 -312 -474 -312 -486 0 -14 33 -28 422 -169 l337 -123 215 117 c118
64 224 124 236 133 17 14 25 48 49 222 l29 205 -34 50 c-19 28 -100 138 -181
245 -140 185 -150 195 -183 197 -19 1 -105 -13 -190 -31z m192 -34 c29 -13 69
-59 174 -197 75 -99 142 -194 150 -212 19 -43 17 -104 -5 -251 -15 -94 -25
-130 -43 -153 -29 -38 -350 -216 -405 -225 -33 -5 -83 10 -334 101 -162 59
-302 111 -311 116 -29 16 -40 46 -27 72 6 12 108 168 225 347 143 218 225 332
247 348 20 13 78 31 148 46 140 29 136 29 181 8z"/>
<path d="M4805 2229 c-49 -10 -92 -22 -96 -27 -28 -29 -387 -588 -381 -593 4
-4 120 -48 258 -98 l250 -91 167 91 c92 50 168 98 171 107 2 9 12 74 22 144
l17 128 -134 177 c-107 142 -139 178 -159 180 -14 1 -65 -7 -115 -18z m115
-30 c24 -9 57 -45 136 -150 114 -154 120 -169 110 -287 -11 -121 -30 -145
-178 -225 -94 -51 -133 -67 -164 -67 -45 0 -387 121 -416 147 -10 9 -18 24
-18 34 0 16 281 452 318 493 47 51 147 77 212 55z"/>
<path d="M4824 2070 c-20 -8 -261 -363 -257 -378 1 -4 59 -28 129 -53 l128
-46 70 39 c39 21 85 46 103 55 29 15 33 22 38 72 4 31 8 63 11 71 5 18 -165
244 -186 247 -8 1 -24 -2 -36 -7z m68 -47 c102 -108 149 -203 127 -260 -26
-69 -127 -134 -207 -134 -52 0 -156 32 -184 58 -10 9 -18 26 -18 37 0 12 39
80 86 151 90 135 130 185 149 185 6 0 27 -17 47 -37z"/>
<path d="M1863 2173 c-56 -60 -103 -113 -103 -120 0 -12 76 -39 219 -79 l65
-18 73 80 74 79 -6 60 c-3 37 -11 64 -20 71 -14 11 -141 34 -183 34 -9 0 -62
-48 -119 -107z m253 32 c41 -27 25 -86 -41 -143 -45 -41 -75 -47 -133 -32 -68
19 -82 28 -82 53 0 28 92 120 135 135 37 14 89 8 121 -13z"/>
<path d="M800 2151 c-82 -51 -95 -62 -91 -82 5 -33 58 -149 68 -149 5 0 49 33
98 73 70 57 89 79 88 96 -4 36 -44 121 -57 120 -6 0 -54 -26 -106 -58z m110
-42 c0 -12 -18 -39 -40 -61 -30 -30 -45 -39 -67 -36 -22 2 -29 9 -31 29 -2 21
6 34 35 58 46 38 103 44 103 10z"/>
<path d="M2570 2029 l-155 -50 -69 -72 c-37 -40 -79 -86 -92 -103 l-24 -31 60
-209 c88 -304 88 -304 113 -304 55 1 241 40 248 52 5 7 42 113 83 235 l74 222
-29 138 c-34 159 -38 173 -47 172 -4 0 -77 -22 -162 -50z m129 -36 c24 -20 51
-134 51 -214 0 -60 -102 -372 -134 -408 -29 -33 -77 -51 -135 -51 -41 0 -53 4
-69 24 -10 14 -42 105 -70 203 -60 204 -59 218 7 298 54 66 97 93 204 131 108
38 118 40 146 17z"/>
<path d="M2537 1852 c-49 -18 -126 -92 -126 -122 -1 -21 77 -282 87 -292 19
-19 44 26 92 171 46 137 51 160 45 207 -7 62 -15 65 -98 36z m71 -53 c3 -28
-73 -275 -87 -284 -15 -9 -28 17 -51 99 -13 48 -19 91 -16 111 15 78 146 141
154 74z"/>
<path d="M1142 1877 c-17 -12 -94 -73 -170 -136 l-139 -114 -72 -224 c-40
-124 -75 -239 -77 -256 -5 -28 15 -64 150 -277 l156 -244 157 -104 c87 -57
170 -110 184 -117 25 -14 36 -7 330 181 167 108 315 208 329 222 14 15 56 93
93 173 l69 145 -82 279 c-45 154 -87 286 -94 292 -6 7 -117 45 -246 84 -220
66 -260 75 -526 113 -22 3 -41 -2 -62 -17z m260 -57 c62 -11 200 -46 307 -79
155 -47 199 -65 222 -88 41 -40 163 -453 156 -525 -6 -65 -93 -241 -144 -293
-39 -40 -504 -345 -556 -364 -16 -6 -40 -8 -55 -5 -36 9 -247 146 -295 192
-38 36 -268 387 -287 437 -6 15 -10 42 -10 62 0 56 107 381 142 433 31 46 228
215 277 237 38 18 114 16 243 -7z"/>
<path d="M1087 1632 l-118 -97 -59 -185 c-33 -101 -60 -190 -60 -198 0 -7 57
-103 127 -214 l128 -201 115 -75 c63 -41 120 -76 126 -79 6 -2 126 69 265 159
l254 163 59 116 60 117 -63 213 c-34 118 -66 218 -71 223 -5 5 -98 35 -207 68
-176 52 -351 89 -415 87 -14 0 -72 -40 -141 -97z m343 38 c168 -37 353 -99
381 -126 33 -32 37 -42 90 -223 47 -163 47 -196 3 -283 -48 -95 -78 -122 -281
-253 -219 -142 -251 -158 -291 -149 -41 10 -189 111 -219 150 -67 89 -212 331
-218 365 -7 43 61 275 101 346 24 41 146 150 201 178 38 20 132 18 233 -5z"/>
<path d="M1183 1506 l-78 -63 -44 -136 -44 -137 59 -92 c143 -227 144 -228
208 -269 33 -21 66 -39 71 -39 6 0 96 56 200 123 184 119 191 125 222 182 18
33 33 69 33 80 0 25 -77 287 -87 295 -12 10 -281 87 -343 98 -128 24 -112 27
-197 -42z m355 -11 c171 -51 181 -60 223 -206 41 -141 31 -197 -48 -270 -40
-37 -304 -205 -334 -212 -73 -18 -138 37 -249 212 -86 136 -92 163 -60 271 31
105 51 140 110 193 82 74 145 76 358 12z"/>
<path d="M1268 1378 c-35 -32 -78 -132 -78 -180 0 -21 130 -228 152 -242 12
-7 48 12 153 79 75 49 142 99 147 111 8 18 5 42 -12 103 l-24 81 -80 24 c-92
28 -199 56 -213 56 -5 0 -26 -15 -45 -32z m188 -14 c115 -33 150 -64 170 -150
12 -52 11 -60 -3 -76 -16 -18 -236 -162 -263 -172 -11 -5 -31 18 -69 76 -71
109 -84 142 -77 195 7 53 39 117 68 137 31 22 68 20 174 -10z"/>
<path d="M2987 1483 c-8 -15 -29 -75 -47 -132 -32 -101 -32 -105 -14 -118 65
-48 417 -244 429 -239 17 6 19 -2 -36 150 l-44 118 -128 122 c-71 66 -132 122
-137 124 -5 2 -15 -9 -23 -25z m149 -151 c56 -53 91 -97 113 -140 33 -65 39
-102 18 -102 -24 0 -258 142 -274 166 -31 48 1 154 46 154 9 0 53 -35 97 -78z"/>
<path d="M3710 1291 c-36 -10 -85 -24 -108 -30 -38 -11 -43 -15 -38 -35 9 -37
175 -459 183 -467 15 -15 384 -209 397 -209 7 0 28 38 46 85 28 72 31 89 21
108 -6 12 -94 144 -194 292 -207 305 -187 289 -307 256z m127 -78 c62 -70 313
-455 319 -492 9 -46 -12 -85 -49 -89 -26 -3 -219 90 -289 139 -40 29 -61 68
-128 244 -51 133 -59 163 -51 183 14 30 64 51 120 52 39 0 49 -5 78 -37z"/>
<path d="M3826 983 c22 -88 69 -149 110 -141 13 2 6 19 -37 83 -58 85 -85 107
-73 58z"/>
<path d="M4244 1179 c-3 -5 5 -26 17 -47 34 -55 129 -191 138 -197 10 -5 171
113 171 126 0 12 -41 32 -160 74 -140 50 -159 55 -166 44z m184 -99 c44 -20
52 -39 27 -60 -22 -18 -61 -4 -85 30 -36 50 -13 62 58 30z"/>
<path d="M5252 1176 c-62 -34 -117 -67 -124 -74 -16 -16 -4 -28 121 -116 l109
-77 76 38 c42 21 76 43 76 51 0 23 -121 242 -133 242 -7 -1 -63 -29 -125 -64z
m142 -46 c36 -43 52 -100 36 -130 -18 -34 -92 -24 -153 20 -73 52 -72 81 2
120 53 28 85 25 115 -10z"/>
<path d="M2560 1024 c-80 -13 -154 -25 -165 -28 -14 -4 -37 -40 -73 -112 -29
-58 -51 -108 -49 -110 16 -16 656 -324 674 -324 22 0 395 203 401 218 3 8 -1
18 -9 23 -105 65 -617 359 -624 358 -5 -1 -75 -12 -155 -25z m429 -178 c133
-76 247 -148 252 -159 8 -14 7 -23 -3 -32 -30 -30 -246 -138 -284 -142 -36 -5
-69 8 -305 122 -145 70 -272 136 -281 147 -10 11 -18 29 -18 40 0 34 31 88 66
114 41 31 152 53 255 51 l75 -2 243 -139z"/>
<path d="M2590 869 c-79 -15 -91 -19 -84 -30 4 -6 103 -58 221 -115 l215 -104
50 26 c38 20 47 28 39 38 -6 7 -83 54 -170 105 -167 96 -175 99 -271 80z m116
-34 c68 -22 258 -136 262 -159 4 -16 -1 -18 -29 -13 -43 8 -339 153 -339 166
0 23 42 26 106 6z"/>
<path d="M388 815 c-54 -47 -100 -95 -103 -108 -5 -24 -35 -280 -35 -303 0
-23 22 -17 161 50 74 34 169 79 212 99 42 20 77 40 77 44 0 18 -186 298 -200
300 -8 2 -59 -35 -112 -82z m114 -6 c13 -6 45 -46 72 -89 65 -108 62 -113
-107 -191 -72 -32 -135 -55 -144 -52 -23 9 -12 157 17 212 20 41 73 95 113
118 27 15 22 15 49 2z"/>
<path d="M296 5923 c13 -43 43 -139 67 -213 l42 -135 135 -102 c128 -97 135
-101 160 -88 23 12 472 284 478 289 1 2 7 54 12 117 19 226 20 209 -5 209 -22
0 -23 -5 -30 -112 -7 -117 -25 -178 -61 -209 -10 -9 -98 -65 -194 -123 -219
-133 -222 -133 -336 -46 -44 33 -91 77 -106 97 -23 30 -75 177 -133 371 -4 15
-14 22 -30 22 l-23 0 24 -77z"/>
<path d="M444 5983 c2 -10 25 -84 51 -165 l46 -148 71 -54 72 -54 36 19 c19
10 96 56 170 101 152 94 142 80 154 236 4 65 3 82 -8 82 -10 0 -16 -21 -21
-72 -12 -137 -21 -149 -182 -246 -108 -66 -141 -74 -194 -47 -47 25 -87 90
-120 198 -29 95 -31 109 -14 150 6 14 1 17 -30 17 -30 0 -35 -3 -31 -17z"/>
<path d="M720 5959 c-46 -22 -86 -41 -87 -43 -6 -6 39 -141 51 -153 9 -10 31
-1 102 42 91 54 91 55 98 101 9 66 8 94 -4 94 -5 0 -10 -21 -10 -47 0 -59 -29
-99 -109 -147 -32 -20 -61 -36 -64 -36 -3 0 -13 22 -22 49 -23 71 -10 93 85
141 98 51 69 50 -40 -1z"/>
<path d="M1452 5843 c-9 -111 -9 -160 -1 -169 13 -16 691 -384 707 -384 9 0
562 278 562 283 0 6 51 368 55 395 5 29 3 32 -18 32 -23 0 -24 -4 -46 -175
-18 -136 -28 -183 -45 -208 -16 -25 -72 -58 -241 -146 -186 -97 -226 -115
-265 -115 -39 0 -82 21 -339 160 -350 191 -335 176 -326 329 3 55 8 112 11
128 5 23 2 27 -18 27 -24 0 -25 -1 -36 -157z"/>
<path d="M1615 5908 c-12 -159 -38 -130 270 -298 l270 -147 210 106 210 106
16 115 c30 219 30 210 15 210 -15 0 -17 -8 -37 -160 -18 -137 -30 -151 -207
-242 -209 -109 -191 -110 -468 41 -261 142 -259 139 -249 274 5 72 3 87 -9 87
-11 0 -16 -22 -21 -92z"/>
<path d="M1792 5992 c-7 -5 -15 -37 -18 -73 l-6 -64 196 -108 196 -107 132 66
c73 36 134 67 136 68 2 3 31 202 32 219 0 4 -4 7 -9 7 -4 0 -11 -31 -15 -69
-11 -124 -31 -153 -148 -212 -117 -59 -140 -56 -312 37 -78 41 -151 88 -163
102 -28 34 -29 75 -2 113 20 29 11 39 -19 21z"/>
<path d="M3037 5988 c-2 -7 -17 -110 -32 -230 l-29 -216 34 -29 c18 -15 125
-102 236 -193 l203 -166 194 -63 c107 -35 199 -62 206 -60 19 7 309 272 315
289 3 8 21 147 40 307 31 256 33 297 22 330 -9 27 -20 39 -35 41 -20 3 -22 0
-17 -25 3 -15 8 -44 11 -63 3 -19 -8 -147 -24 -283 -25 -201 -35 -256 -53
-288 -32 -57 -221 -226 -269 -240 -36 -11 -50 -8 -171 30 -73 24 -158 56 -189
73 -89 46 -410 315 -433 362 -18 37 -18 41 3 200 12 88 24 178 28 199 5 32 3
37 -15 37 -11 0 -22 -6 -25 -12z"/>
<path d="M3195 5988 c-7 -23 -45 -323 -45 -356 0 -28 17 -45 185 -182 l185
-152 145 -48 145 -48 103 94 104 94 31 256 c30 249 30 257 14 303 -10 25 -25
47 -34 49 -15 3 -15 -1 -2 -44 8 -26 14 -67 14 -91 0 -77 -40 -387 -56 -429
-20 -55 -127 -158 -180 -174 -35 -10 -49 -8 -134 19 -52 17 -117 45 -145 62
-77 49 -309 244 -322 270 -22 47 -23 62 -3 202 11 78 20 152 20 164 0 24 -18
32 -25 11z"/>
<path d="M3332 5838 l-21 -163 23 -20 c13 -11 78 -64 145 -118 107 -87 130
-101 208 -128 l88 -29 47 47 48 48 23 205 24 205 -20 58 c-12 31 -24 57 -29
57 -4 0 -3 -12 3 -27 26 -69 28 -132 8 -294 -26 -219 -50 -263 -138 -263 -32
0 -65 10 -108 31 -73 36 -259 186 -279 225 -8 15 -14 47 -14 72 0 68 20 198
35 229 12 24 12 27 -4 27 -15 0 -20 -23 -39 -162z"/>
<path d="M5412 5977 c-21 -22 -22 -33 -22 -188 l0 -164 89 -89 89 -89 216 54
c205 51 216 55 216 77 0 18 -4 22 -17 18 -10 -3 -93 -24 -185 -47 -194 -48
-215 -47 -281 11 -70 62 -87 107 -87 228 0 105 12 156 47 194 15 17 14 18 -14
18 -18 0 -38 -9 -51 -23z"/>
<path d="M5950 5986 c6 -8 20 -36 30 -63 l19 -48 1 63 0 62 -31 0 c-26 0 -29
-2 -19 -14z"/>
<path d="M0 5926 c0 -48 9 -94 31 -162 33 -101 32 -125 -7 -150 -13 -9 -24
-25 -24 -36 0 -18 4 -19 37 -13 60 11 88 28 85 50 -5 26 -113 369 -118 374 -2
2 -4 -26 -4 -63z"/>
<path d="M3568 5956 c-31 -17 -60 -35 -64 -39 -5 -4 -13 -46 -19 -93 l-12 -85
56 -47 c107 -92 146 -120 172 -127 l26 -6 18 154 c22 193 17 216 -56 252 -26
14 -52 24 -56 24 -4 -1 -34 -16 -65 -33z m144 -23 c35 -33 39 -59 27 -178 -13
-121 -26 -175 -42 -175 -7 0 -49 29 -94 65 -59 47 -85 75 -97 106 -35 88 16
188 109 210 40 9 64 2 97 -28z"/>
<path d="M5601 5934 l-51 -46 0 -97 c0 -97 0 -97 33 -129 l34 -33 151 38 c84
21 152 42 151 48 0 5 -15 53 -32 105 l-32 95 -95 32 c-52 17 -98 32 -101 32
-4 1 -30 -20 -58 -45z m187 -16 c76 -39 120 -150 78 -197 -30 -34 -230 -74
-262 -53 -23 15 -38 59 -38 117 -1 146 90 201 222 133z"/>
<path d="M150 5330 c-143 -37 -150 -40 -150 -60 0 -25 1 -25 121 5 122 31 148
27 243 -46 107 -80 107 -85 52 -302 -32 -129 -52 -188 -71 -213 -20 -26 -64
-52 -185 -110 -141 -68 -160 -80 -160 -101 0 -13 3 -22 7 -20 5 2 92 44 195
93 l188 88 14 46 c8 25 38 135 65 244 60 233 69 199 -88 317 -70 53 -113 79
-130 78 -14 0 -60 -9 -101 -19z"/>
<path d="M5823 5246 c-89 -23 -165 -44 -168 -47 -3 -4 -12 -93 -20 -200 -8
-107 -16 -215 -19 -241 -5 -47 -4 -49 102 -198 69 -97 113 -150 125 -150 10 0
49 16 87 35 51 26 70 41 70 55 0 25 -11 25 -60 0 -76 -39 -107 -25 -184 82
-100 139 -100 141 -82 364 18 231 11 222 209 270 107 26 117 30 117 51 0 13
-3 23 -7 22 -5 0 -81 -20 -170 -43z"/>
<path d="M93 5153 c-59 -16 -93 -31 -93 -39 0 -8 1 -14 3 -14 1 0 36 9 77 20
130 34 190 25 209 -33 10 -29 8 -50 -10 -123 -39 -156 -53 -174 -196 -239 -46
-21 -83 -44 -83 -51 0 -8 3 -14 8 -14 4 0 62 27 128 59 109 53 123 62 132 92
14 42 72 275 72 286 0 5 -22 25 -50 46 -59 44 -72 44 -197 10z"/>
<path d="M5895 5103 c-49 -14 -92 -26 -93 -28 -2 -2 -9 -76 -16 -164 l-12
-160 51 -71 c29 -38 54 -72 57 -75 10 -10 118 48 118 63 0 10 -6 12 -17 6 -10
-4 -35 -9 -55 -12 -31 -3 -42 1 -67 25 -42 42 -55 100 -47 212 10 137 29 162
144 191 25 7 42 17 42 25 0 18 7 19 -105 -12z"/>
<path d="M58 4982 c-32 -9 -58 -20 -58 -25 0 -4 10 -5 23 0 33 11 100 10 104
-3 6 -19 -45 -72 -87 -90 -43 -19 -56 -40 -15 -24 81 31 102 48 114 94 19 76
18 76 -81 48z"/>
<path d="M5950 4941 c-5 -11 -10 -47 -10 -81 l0 -61 32 17 c29 15 30 17 12 27
-37 20 -38 51 -3 83 24 22 24 34 -1 34 -10 0 -24 -9 -30 -19z"/>
<path d="M340 4356 c-366 -171 -340 -156 -340 -195 l0 -34 23 20 c35 34 378
193 414 193 41 0 54 -12 207 -198 157 -189 155 -184 65 -353 -34 -63 -66 -120
-72 -127 -28 -34 -75 -45 -289 -63 -196 -17 -222 -17 -248 -4 -35 18 -42 38
-74 240 l-24 150 -1 -130 c-1 -122 20 -299 38 -317 6 -7 602 38 606 45 66 109
195 356 195 375 0 20 -357 452 -374 452 -6 0 -63 -24 -126 -54z"/>
<path d="M263 4145 c-84 -40 -153 -77 -153 -82 0 -29 53 -350 60 -356 4 -5 89
-1 188 7 99 9 183 16 186 16 3 0 30 47 61 105 l57 106 -58 72 c-92 113 -174
207 -182 207 -4 0 -76 -34 -159 -75z m190 -5 c14 -11 53 -54 86 -96 52 -64 61
-81 61 -115 0 -63 -44 -135 -102 -165 -15 -8 -76 -16 -150 -20 -121 -6 -123
-6 -145 18 -17 17 -26 49 -38 123 -26 158 -18 174 113 237 89 42 138 47 175
18z"/>
<path d="M333 4005 c-57 -26 -56 -21 -37 -112 5 -25 24 -28 108 -17 65 9 77
33 39 81 -62 78 -52 74 -110 48z m90 -46 c15 -16 27 -35 27 -43 0 -28 -103
-36 -132 -9 -24 22 -23 39 7 69 31 31 57 26 98 -17z"/>
<path d="M5959 4171 l-23 -18 28 -189 c16 -104 30 -191 32 -193 3 -3 4 91 3
207 -1 117 -5 212 -9 212 -4 0 -18 -8 -31 -19z"/>
<path d="M297 3295 c-147 -13 -274 -26 -282 -29 -10 -4 -15 -20 -15 -51 l0
-46 39 32 40 31 261 21 c260 21 262 21 298 2 50 -27 278 -341 287 -395 8 -48
-61 -275 -99 -325 -31 -40 -260 -181 -321 -197 -37 -10 -69 -8 -211 15 -197
32 -222 44 -264 126 l-29 56 -1 -47 c0 -45 31 -138 47 -138 4 0 100 -16 213
-35 113 -19 217 -35 232 -35 37 0 371 201 384 232 6 13 35 98 64 190 l53 167
-160 223 -160 223 -54 1 c-30 1 -175 -8 -322 -21z"/>
<path d="M5902 3052 l-92 -192 92 -206 93 -206 3 48 c2 42 -6 68 -58 182 -80
177 -80 189 0 352 52 105 61 130 58 169 -3 45 -3 45 -96 -147z"/>
<path d="M340 3140 c-113 -10 -211 -19 -218 -19 -20 -1 -122 -223 -122 -265 0
-29 103 -275 145 -348 8 -13 48 -24 171 -43 l161 -26 129 77 c71 43 130 78
132 80 2 1 21 57 42 124 l38 121 -112 157 c-89 124 -118 157 -137 158 -13 1
-116 -6 -229 -16z m250 -46 c54 -46 168 -216 176 -261 9 -57 -28 -164 -73
-214 -50 -55 -180 -128 -239 -135 -78 -9 -232 22 -273 54 -48 39 -144 248
-144 317 -1 89 83 225 147 240 36 9 207 22 293 24 74 1 84 -1 113 -25z"/>
<path d="M300 2979 c-91 -10 -89 -9 -123 -85 l-18 -41 49 -109 49 -109 93 -16
93 -17 83 50 c75 45 84 54 98 96 9 25 16 51 16 59 0 7 -27 51 -61 98 l-61 85
-66 -1 c-37 -1 -105 -6 -152 -10z m217 -27 c11 -6 37 -36 58 -66 52 -75 53
-121 5 -172 -88 -92 -232 -111 -309 -41 -34 32 -81 135 -81 180 0 78 39 105
169 116 85 7 120 3 158 -17z"/>
<path d="M5992 2855 c0 -16 2 -22 5 -12 2 9 2 23 0 30 -3 6 -5 -1 -5 -18z"/>
<path d="M0 2068 c0 -26 3 -28 40 -28 51 0 287 -37 321 -51 45 -18 76 -60 118
-161 29 -68 41 -112 41 -146 0 -59 -110 -410 -145 -464 -32 -48 -190 -186
-234 -205 -33 -14 -84 -13 -126 3 -13 5 -16 2 -13 -16 2 -18 15 -27 58 -42 30
-10 64 -16 75 -13 11 3 80 58 154 123 l134 117 80 252 80 253 -39 97 c-21 53
-55 128 -74 167 l-35 71 -70 12 c-38 7 -136 23 -217 36 l-148 24 0 -29z"/>
<path d="M5810 1999 c-91 -56 -168 -104 -172 -108 -4 -3 -21 -104 -38 -225
l-31 -219 107 -202 107 -203 101 -31 c56 -17 105 -31 110 -31 4 0 6 10 4 22
-2 17 -15 26 -58 38 -70 21 -109 42 -136 72 -34 37 -162 289 -173 340 -9 37
-7 77 9 190 27 187 25 182 61 223 33 38 227 159 272 170 22 6 27 13 27 36 0
17 -5 29 -12 29 -7 0 -87 -46 -178 -101z"/>
<path d="M0 1911 c0 -16 8 -19 63 -19 76 0 197 -25 231 -47 37 -24 76 -110 76
-166 0 -55 -80 -313 -116 -376 -13 -23 -49 -62 -80 -87 -56 -46 -105 -63 -149
-52 -18 5 -25 2 -25 -9 0 -8 1 -15 3 -15 1 0 23 -7 49 -14 l46 -14 93 79 93
80 63 197 c35 108 63 205 63 215 0 36 -73 189 -94 198 -25 10 -252 49 -290 49
-19 0 -26 -5 -26 -19z"/>
<path d="M5900 1869 c-52 -33 -101 -64 -109 -68 -9 -5 -21 -63 -36 -167 l-23
-159 80 -150 c44 -82 80 -151 81 -151 1 -1 26 -9 55 -17 45 -14 52 -14 52 -2
0 8 -15 21 -33 28 -18 8 -46 30 -63 49 -43 49 -121 205 -129 258 -9 64 19 232
45 275 20 33 140 115 168 115 7 0 12 11 12 25 0 14 -1 25 -2 24 -2 0 -46 -27
-98 -60z"/>
<path d="M16 1755 c-27 -21 -16 -26 28 -14 62 17 165 -9 179 -45 11 -28 -49
-230 -91 -309 -36 -67 -91 -95 -118 -59 -12 16 -13 16 -14 -4 0 -16 8 -23 31
-28 27 -5 39 0 75 29 24 20 47 49 53 68 5 17 28 89 50 160 39 121 41 129 26
157 -16 31 -20 33 -119 50 -75 13 -77 12 -100 -5z"/>
<path d="M5954 1719 c-30 -19 -32 -24 -44 -117 l-13 -97 48 -95 c27 -52 50
-90 52 -84 2 7 -12 41 -33 78 -60 110 -57 227 7 301 35 39 29 43 -17 14z"/>
<path d="M4815 912 c-22 -15 -108 -77 -190 -139 l-150 -111 -59 -153 -59 -154
33 -95 c18 -52 42 -117 53 -143 l20 -49 56 6 c31 4 195 18 366 32 307 25 309
26 345 54 47 37 180 176 180 186 -1 5 -38 81 -83 169 l-82 160 -185 132 c-102
73 -189 133 -195 133 -5 0 -28 -12 -50 -28z m228 -147 c76 -54 150 -114 166
-134 16 -20 52 -83 81 -140 66 -132 64 -152 -18 -230 -89 -85 -100 -88 -438
-116 -357 -30 -341 -33 -387 85 -39 102 -35 162 21 289 22 51 51 105 64 118
27 30 248 199 287 220 45 24 81 9 224 -92z"/>
<path d="M4786 695 c-180 -129 -176 -124 -217 -226 -21 -52 -38 -103 -39 -114
-1 -36 33 -115 49 -115 9 0 135 9 281 22 253 21 266 23 298 47 66 52 66 58 18
158 -48 97 -54 103 -176 190 -150 106 -126 102 -214 38z m192 -59 c100 -71
135 -108 168 -180 21 -46 25 -65 18 -85 -17 -48 -63 -60 -305 -81 -193 -17
-226 -17 -255 -5 -32 13 -34 17 -34 60 0 53 38 153 75 197 15 17 46 46 69 64
138 105 155 107 264 30z"/>
<path d="M4805 514 c-72 -54 -71 -53 -80 -83 l-7 -24 78 7 c194 16 214 19 214
30 0 7 -33 35 -73 63 l-73 51 -59 -44z m147 -33 c21 -14 38 -29 38 -32 0 -6
-137 -19 -209 -19 l-45 0 30 31 c59 64 116 70 186 20z"/>
<path d="M5610 747 c-57 -33 -74 -48 -72 -63 1 -10 29 -74 62 -141 l59 -122
143 -45 c78 -26 150 -46 159 -46 24 0 29 33 36 216 5 152 4 161 -13 167 -11 3
-71 21 -134 41 -63 20 -126 36 -140 36 -14 0 -59 -20 -100 -43z m241 -38 c40
-13 75 -32 93 -51 27 -29 28 -33 21 -97 -9 -93 -21 -143 -37 -152 -23 -15 -65
-10 -134 15 -83 30 -123 69 -164 157 -28 62 -30 71 -18 96 7 15 24 33 38 40
38 19 128 16 201 -8z"/>
<path d="M5750 605 c0 -21 28 -56 53 -64 36 -13 47 -7 47 24 0 17 -8 26 -31
34 -33 11 -69 15 -69 6z"/>
<path d="M1 613 c2 -85 2 -86 9 -33 11 80 11 120 0 120 -6 0 -9 -35 -9 -87z"/>
<path d="M1804 374 c-159 -103 -297 -191 -306 -198 -19 -11 -24 -34 -31 -123
-4 -50 -3 -53 19 -53 21 0 24 5 24 37 0 20 9 56 21 79 18 39 45 59 271 205
138 89 268 166 288 171 45 12 75 -1 413 -167 256 -127 253 -123 242 -246 -7
-74 -6 -79 13 -79 17 0 21 11 31 75 6 42 11 93 11 115 0 39 -1 39 -72 74 -40
19 -194 93 -342 165 -147 72 -274 131 -281 131 -7 0 -143 -84 -301 -186z"/>
<path d="M3360 374 c-151 -81 -279 -150 -283 -154 -8 -7 -37 -167 -37 -202 0
-11 8 -18 20 -18 14 0 21 9 25 38 13 80 18 98 31 124 20 40 57 64 280 181 164
87 210 107 244 107 34 0 76 -18 221 -96 121 -64 188 -106 207 -130 15 -18 43
-77 62 -129 29 -82 37 -95 57 -95 22 0 22 1 -22 127 -25 70 -51 133 -58 140
-12 12 -457 253 -467 253 -3 0 -129 -66 -280 -146z"/>
<path d="M590 245 c-327 -154 -340 -161 -335 -178 2 -7 6 -24 9 -40 5 -20 12
-27 31 -27 19 0 25 5 25 23 0 13 10 33 23 45 13 12 129 72 258 133 290 137
283 137 435 35 118 -78 141 -113 131 -191 -6 -42 -5 -45 17 -45 22 0 24 4 28
77 3 43 3 83 1 90 -5 13 -314 213 -329 213 -5 0 -137 -61 -294 -135z"/>
<path d="M1869 229 c-129 -83 -235 -152 -236 -153 0 0 -4 -18 -8 -38 -10 -53
16 -51 47 3 19 34 56 63 208 163 185 121 185 121 245 121 56 -1 74 -7 249 -95
120 -61 195 -104 205 -120 9 -13 16 -43 15 -67 -1 -28 3 -43 11 -43 14 0 25
44 25 100 l0 37 -252 122 c-139 67 -258 121 -264 121 -6 0 -117 -68 -245 -151z"/>
<path d="M3575 309 c-178 -93 -341 -182 -352 -192 -6 -7 -15 -36 -19 -64 -6
-45 -4 -53 10 -53 9 0 16 8 16 20 0 26 22 70 46 91 11 9 84 51 164 94 191 103
198 103 336 34 134 -68 197 -122 219 -189 10 -31 22 -50 32 -50 8 0 13 6 11
13 -3 6 -15 42 -27 79 l-22 66 -173 91 c-95 50 -174 91 -177 91 -2 0 -31 -14
-64 -31z"/>
<path d="M658 102 c-182 -85 -204 -97 -173 -100 18 -2 44 4 57 12 63 40 290
136 323 136 66 0 139 -59 152 -121 9 -48 33 -36 33 16 l0 45 -82 55 c-46 30
-87 55 -93 55 -5 0 -103 -44 -217 -98z"/>
<path d="M1963 102 c-84 -53 -149 -98 -143 -100 5 -2 65 34 135 79 169 110
173 110 333 30 87 -43 126 -69 134 -86 14 -31 38 -33 38 -2 0 19 -24 33 -163
100 -89 42 -166 77 -172 77 -5 0 -79 -44 -162 -98z"/>
<path d="M3493 88 c-73 -39 -133 -75 -133 -80 0 -16 29 -8 54 15 38 35 190
107 225 107 43 0 162 -62 195 -101 28 -33 42 -34 31 0 -6 20 -201 132 -227
130 -7 0 -73 -32 -145 -71z"/>
<path d="M5518 81 c-78 -76 -81 -80 -54 -81 19 0 43 13 78 45 69 62 97 65 227
26 58 -18 121 -41 139 -52 30 -17 92 -27 92 -13 0 30 -32 47 -179 94 -234 74
-205 76 -303 -19z"/>
<path d="M830 10 c-11 -7 -5 -10 23 -10 23 0 36 4 32 10 -8 13 -35 13 -55 0z"/>
</g>
</svg>
