<svg version="1.0" xmlns="http://www.w3.org/2000/svg"
 width="600.000000pt" height="600.000000pt" viewBox="0 0 600.000000 600.000000"
 preserveAspectRatio="xMidYMid meet">

<g transform="translate(0.000000,600.000000) scale(0.100000,-0.100000)"
fill="none" stroke="none">
<path d="M110 5993 c0 -3 30 -101 66 -216 48 -151 64 -214 57 -226 -19 -30 -59 -51 -143 -74 -81 -23 -85 -26 -88 -55 l-3 -29 98 24 c154 37 224 22 364 -83 103 -77 139 -133 139 -218 0 -69 -84 -389 -116 -444 -54 -92 -105 -125 -402 -263 -76 -36 -82 -41 -82 -69 0 -16 2 -30 5 -30 5 0 78 34 279 129 214 102 214 101 475 -213 73 -87 143 -176 157 -197 45 -72 44 -78 -60 -269 -144 -265 -158 -274 -465 -301 -236 -21 -344 -23 -372 -9 -18 10 -19 7 -19 -45 0 -59 1 -61 33 -44 11 7 140 22 286 34 396 32 391 34 569 -210 193 -265 206 -308 152 -491 -65 -220 -115 -284 -307 -399 -123 -73 -212 -105 -292 -105 -76 0 -348 52 -393 75 l-48 24 0 -54 0 -55 58 0 c31 0 121 -11 200 -25 161 -27 205 -47 269 -118 48 -55 143 -277 143 -335 0 -51 -26 -151 -89 -342 -62 -191 -103 -255 -233 -371 -120 -106 -158 -124 -265 -124 l-83 0 0 -27 c0 -23 6 -29 40 -38 78 -21 88 -73 60 -309 -22 -181 -32 -217 -74 -245 -22 -14 -26 -24 -26 -63 0 -40 5 -52 40 -89 22 -24 46 -55 52 -69 9 -20 19 -25 45 -25 30 0 33 3 28 20 -11 33 15 101 53 140 29 29 100 67 310 165 266 125 276 128 340 127 90 0 115 -11 286 -122 169 -110 169 -109 159 -247 l-6 -85 29 4 c28 3 29 6 36 66 8 72 45 147 97 197 20 19 140 101 266 183 329 212 299 196 371 195 56 0 78 -8 201 -66 312 -148 592 -287 598 -296 6 -10 -7 -151 -22 -243 -5 -37 -5 -38 25 -38 29 0 30 2 37 53 17 139 41 213 81 248 11 9 132 76 269 150 l250 134 95 0 95 0 165 -89 c91 -49 195 -106 231 -127 l67 -39 41 -116 c23 -64 48 -138 57 -165 l16 -49 57 0 58 0 -41 43 c-74 78 -122 269 -97 387 35 169 124 305 271 417 178 136 222 163 277 169 73 9 106 -6 261 -116 180 -128 243 -197 324 -354 56 -109 62 -127 62 -181 0 -74 -23 -122 -91 -186 -121 -116 -192 -146 -388 -164 l-140 -12 230 -2 230 -1 28 45 c31 48 179 192 221 214 22 12 41 9 193 -38 92 -29 183 -61 201 -71 l32 -19 0 49 0 50 -34 0 c-19 0 -106 22 -193 50 -127 40 -162 55 -181 77 -43 54 -152 282 -152 319 0 48 36 110 78 134 112 67 234 76 386 31 l97 -29 -3 31 c-3 33 -5 34 -185 87 -66 20 -76 26 -110 72 -20 28 -81 135 -136 237 l-98 186 26 200 c38 283 65 334 234 439 115 71 156 91 219 106 l52 12 0 54 c0 49 -4 58 -38 93 -29 30 -65 98 -141 266 l-103 227 12 62 c18 95 156 371 208 419 23 20 47 37 52 37 6 0 10 26 10 58 0 47 -4 63 -21 78 -12 10 -28 32 -36 47 -13 27 -102 560 -103 618 0 39 54 105 110 137 44 24 50 31 50 60 l0 32 -40 -20 c-62 -32 -119 -36 -172 -12 -38 16 -59 39 -128 133 -142 195 -148 222 -125 527 11 146 21 222 31 236 32 47 93 73 264 116 l170 42 0 29 c0 16 -2 29 -5 29 -3 0 -77 -18 -165 -40 -88 -22 -179 -40 -203 -40 -123 0 -228 74 -294 208 -37 73 -38 81 -41 195 -3 89 0 131 12 167 9 27 16 52 16 56 0 3 -154 3 -342 -1 -426 -8 -482 -8 -587 0 l-84 7 7 -35 c18 -96 -15 -499 -51 -612 -28 -90 -78 -158 -190 -260 -127 -115 -166 -137 -253 -142 -58 -4 -80 1 -198 41 -142 49 -210 80 -282 129 -77 52 -358 286 -387 321 -37 47 -62 113 -62 166 -1 39 28 273 44 363 4 24 2 27 -25 27 -36 0 -32 16 -65 -250 -14 -113 -30 -214 -34 -225 -12 -30 -526 -293 -597 -306 -92 -17 -145 0 -342 107" fill="#a42f2f"/>
</g>
</svg>
